<svg width="40" height="40" viewBox="0 0 40 40" fill="none" xmlns="http://www.w3.org/2000/svg">
<path d="M34.9991 27.4608V31.977C35.0008 32.3962 34.9147 32.8112 34.7464 33.1954C34.5781 33.5795 34.3313 33.9243 34.0218 34.2078C33.7122 34.4912 33.3467 34.707 32.9488 34.8413C32.5508 34.9756 32.1292 35.0255 31.7108 34.9878C27.0692 34.4844 22.6106 32.9015 18.6934 30.3662C15.0488 28.0549 11.9589 24.9711 9.64301 21.3338C7.09379 17.4065 5.50736 12.9351 5.01224 8.28192C4.97455 7.86563 5.02412 7.44607 5.1578 7.04994C5.29149 6.65381 5.50635 6.28981 5.78871 5.9811C6.07108 5.67239 6.41475 5.42574 6.79786 5.25685C7.18097 5.08796 7.59512 5.00054 8.01394 5.00015H12.5391C13.2712 4.99296 13.9808 5.25167 14.5359 5.72806C15.0909 6.20445 15.4534 6.86601 15.5559 7.58944C15.7469 9.03473 16.1011 10.4538 16.6118 11.8196C16.8147 12.3584 16.8586 12.944 16.7383 13.507C16.618 14.07 16.3386 14.5867 15.933 14.996L14.0173 16.9079C16.1646 20.6767 19.2914 23.7973 23.0677 25.9403L24.9833 24.0284C25.3935 23.6237 25.9112 23.3448 26.4753 23.2247C27.0394 23.1046 27.6262 23.1485 28.1661 23.351C29.5346 23.8607 30.9565 24.2142 32.4046 24.4048C33.1374 24.508 33.8065 24.8763 34.2849 25.4398C34.7633 26.0032 35.0174 26.7225 34.9991 27.4608Z" stroke="black" stroke-width="2" stroke-linecap="round" stroke-linejoin="round"/>
</svg>
